<svg xmlns="http://www.w3.org/2000/svg" width="40" height="40" viewBox="0 0 40 40">
  <g id="그룹_597" data-name="그룹 597" transform="translate(-463 -311)">
    <circle id="타원_140" data-name="타원 140" cx="20" cy="20" r="20" transform="translate(463 311)" fill="#d4e2ff"/>
    <path id="bicycle" d="M22.191,103.244a5.071,5.071,0,0,0-1.191.141L18.98,98.539l1.752-.584a.8.8,0,1,0-.505-1.516l-2.622.876a.8.8,0,0,0-.43,1.045l.5,1.2-7,1.82-.719-1.678h1.111a.8.8,0,1,0,0-1.6H7.644a.8.8,0,1,0,0,1.6h.573l1.064,2.481L7.733,104a5.076,5.076,0,1,0,2.359,5.124h2.687a.8.8,0,0,0,.645-.328l5.153-7.067L19.525,104a5.075,5.075,0,1,0,2.665-.758ZM5.077,111.8a3.479,3.479,0,1,1,1.6-6.57l-2.2,2.57a.8.8,0,0,0,.607,1.319H8.463A3.485,3.485,0,0,1,5.077,111.8Zm1.737-4.278,3.168-3.7,1.584,3.7Zm6.145-.806-1.648-3.846,5.494-1.428Zm9.231,5.084a3.478,3.478,0,0,1-2.039-6.3l1.3,3.124a.8.8,0,0,0,1.475-.614l-1.3-3.126a3.479,3.479,0,1,1,.565,6.912Z" transform="translate(469.366 226.102)" fill="#92b5f9"/>
  </g>
</svg>
