<svg xmlns="http://www.w3.org/2000/svg" width="40" height="40" viewBox="0 0 40 40">
  <g id="그룹_555" data-name="그룹 555" transform="translate(-690 -826)">
    <circle id="타원_92" data-name="타원 92" cx="20" cy="20" r="20" transform="translate(690 826)" fill="#e2f6f6"/>
    <g id="dinner" transform="translate(699.166 837.281)">
      <g id="그룹_473" data-name="그룹 473" transform="translate(4.004 1.138)">
        <g id="그룹_472" data-name="그룹 472">
          <path id="패스_117" data-name="패스 117" d="M101.8,76.909a7.175,7.175,0,1,0,7.175,7.175A7.175,7.175,0,0,0,101.8,76.909Zm0,12.62a5.445,5.445,0,1,1,5.445-5.445A5.451,5.451,0,0,1,101.8,89.529Z" transform="translate(-94.62 -76.909)" fill="#56ad9e"/>
        </g>
      </g>
      <g id="그룹_475" data-name="그룹 475" transform="translate(7.194 4.329)">
        <g id="그룹_474" data-name="그룹 474">
          <path id="패스_118" data-name="패스 118" d="M173.994,152.3a3.985,3.985,0,1,0,3.985,3.985A3.99,3.99,0,0,0,173.994,152.3Z" transform="translate(-170.009 -152.299)" fill="#56ad9e"/>
        </g>
      </g>
      <g id="그룹_477" data-name="그룹 477" transform="translate(19.186)">
        <g id="그룹_476" data-name="그룹 476">
          <path id="패스_119" data-name="패스 119" d="M455.4,58.924V50.2a.2.2,0,0,0-.352-.118,8.252,8.252,0,0,0-1.677,4.986v3.19a.662.662,0,0,0,.662.662h.276c-.272,2.812-.452,6.744-.452,7.2a1.035,1.035,0,1,0,1.995,0C455.853,65.668,455.673,61.735,455.4,58.924Z" transform="translate(-453.372 -50.008)" fill="#56ad9e"/>
        </g>
      </g>
      <g id="그룹_479" data-name="그룹 479" transform="translate(0 0.781)">
        <g id="그룹_478" data-name="그룹 478">
          <path id="패스_120" data-name="패스 120" d="M2.9,74.877a1.907,1.907,0,0,0,.921-1.633l-.273-4.47a.323.323,0,0,0-.645.036l.178,3.585a.365.365,0,1,1-.73,0l-.089-3.583a.349.349,0,0,0-.7,0L1.47,72.395a.365.365,0,1,1-.73,0L.918,68.81a.323.323,0,0,0-.645-.036L0,73.244a1.907,1.907,0,0,0,.921,1.633,1.079,1.079,0,0,1,.513,1.042C1.122,78.727.911,83.311.911,83.81a1.189,1.189,0,0,0,1,1.313,1.189,1.189,0,0,0,1-1.313c0-.5-.212-5.084-.523-7.892A1.08,1.08,0,0,1,2.9,74.877Z" transform="translate(0 -68.471)" fill="#56ad9e"/>
        </g>
      </g>
    </g>
  </g>
</svg>
