<svg xmlns="http://www.w3.org/2000/svg" width="40" height="40" viewBox="0 0 40 40">
  <g id="그룹_596" data-name="그룹 596" transform="translate(-1275 -715)">
    <circle id="타원_92" data-name="타원 92" cx="20" cy="20" r="20" transform="translate(1275 715)" fill="#fee"/>
    <g id="dinner" transform="translate(1282.5 725)">
      <g id="그룹_473" data-name="그룹 473" transform="translate(4.62 1.314)">
        <g id="그룹_472" data-name="그룹 472">
          <path id="패스_117" data-name="패스 117" d="M102.9,76.909a8.279,8.279,0,1,0,8.279,8.279A8.279,8.279,0,0,0,102.9,76.909Zm0,14.562a6.282,6.282,0,1,1,6.282-6.282A6.289,6.289,0,0,1,102.9,91.471Z" transform="translate(-94.62 -76.909)" fill="#d37c7c"/>
        </g>
      </g>
      <g id="그룹_475" data-name="그룹 475" transform="translate(8.301 4.995)">
        <g id="그룹_474" data-name="그룹 474">
          <path id="패스_118" data-name="패스 118" d="M174.607,152.3a4.6,4.6,0,1,0,4.6,4.6A4.6,4.6,0,0,0,174.607,152.3Z" transform="translate(-170.009 -152.299)" fill="#d37c7c"/>
        </g>
      </g>
      <g id="그룹_477" data-name="그룹 477" transform="translate(22.137)">
        <g id="그룹_476" data-name="그룹 476">
          <path id="패스_119" data-name="패스 119" d="M455.713,60.3V50.234a.226.226,0,0,0-.406-.137,9.522,9.522,0,0,0-1.935,5.753v3.681a.764.764,0,0,0,.764.764h.319c-.314,3.244-.522,7.782-.522,8.313a1.195,1.195,0,1,0,2.3,0C456.235,68.078,456.027,63.54,455.713,60.3Z" transform="translate(-453.372 -50.008)" fill="#d37c7c"/>
        </g>
      </g>
      <g id="그룹_479" data-name="그룹 479" transform="translate(0 0.902)">
        <g id="그룹_478" data-name="그룹 478">
          <path id="패스_120" data-name="패스 120" d="M3.341,75.862A2.2,2.2,0,0,0,4.4,73.978l-.315-5.157a.373.373,0,0,0-.744.041L3.549,73a.421.421,0,0,1-.842,0l-.1-4.134a.4.4,0,0,0-.805,0L1.7,73a.421.421,0,0,1-.842,0l.205-4.136a.373.373,0,0,0-.744-.041L0,73.978a2.2,2.2,0,0,0,1.062,1.884,1.245,1.245,0,0,1,.592,1.2c-.36,3.24-.6,8.53-.6,9.106A1.371,1.371,0,0,0,2.2,87.686,1.371,1.371,0,0,0,3.352,86.17c0-.576-.244-5.866-.6-9.106A1.246,1.246,0,0,1,3.341,75.862Z" transform="translate(0 -68.471)" fill="#d37c7c"/>
        </g>
      </g>
    </g>
    <line id="선_164" data-name="선 164" y1="40" transform="translate(1309.143 749.143) rotate(135)" fill="none" stroke="#fee" stroke-width="2"/>
    <line id="선_165" data-name="선 165" y2="40" transform="translate(1309.143 720.857) rotate(45)" fill="none" stroke="#fee" stroke-width="2"/>
  </g>
</svg>
